<svg width="223" height="183" viewBox="0 0 223 183" fill="none" xmlns="http://www.w3.org/2000/svg">
<path d="M223 161.417H0V161.537H223V161.417Z" fill="#EBEBEB"/>
<path d="M200.656 169.104H176.023V169.224H200.656V169.104Z" fill="#EBEBEB"/>
<path d="M147.403 166.601H143.527V166.721H147.403V166.601Z" fill="#EBEBEB"/>
<path d="M174.68 164.67H166.121V164.79H174.68V164.67Z" fill="#EBEBEB"/>
<path d="M42.6612 165.473H23.3984V165.593H42.6612V165.473Z" fill="#EBEBEB"/>
<path d="M116.426 168.56H96.0352V168.68H116.426V168.56Z" fill="#EBEBEB"/>
<path d="M104.43 166.539H62.6484V166.659H104.43V166.539Z" fill="#EBEBEB"/>
<path d="M108.254 137.38C108.254 137.739 108.188 138.094 108.06 138.425C107.932 138.757 107.744 139.058 107.507 139.311C107.27 139.564 106.989 139.765 106.679 139.902C106.37 140.039 106.038 140.109 105.703 140.108H19.5852C18.9105 140.107 18.2639 139.819 17.7873 139.308C17.3107 138.796 17.043 138.103 17.043 137.38V7.69929C17.0488 6.98074 17.3191 6.29369 17.7951 5.78736C18.2711 5.28104 18.9144 4.99635 19.5852 4.99512H105.703C106.379 4.99512 107.026 5.28254 107.504 5.79415C107.982 6.30576 108.25 6.99965 108.25 7.72318M108.138 7.72318C108.141 7.37878 108.08 7.03728 107.958 6.71831C107.837 6.39934 107.658 6.1092 107.432 5.86456C107.206 5.61991 106.936 5.4256 106.64 5.29279C106.343 5.15998 106.025 5.09129 105.703 5.09067H19.5852C18.9401 5.09194 18.3219 5.36733 17.8661 5.85641C17.4104 6.34548 17.1545 7.00827 17.1545 7.69929V137.38C17.1545 138.071 17.4104 138.734 17.8661 139.223C18.3219 139.712 18.9401 139.988 19.5852 139.989H105.703C106.349 139.988 106.968 139.712 107.424 139.224C107.88 138.735 108.137 138.072 108.138 137.38" fill="#EBEBEB"/>
<path d="M202.177 140.108H116.054C115.379 140.107 114.732 139.819 114.255 139.308C113.778 138.797 113.509 138.104 113.508 137.38V7.69929C113.515 6.9803 113.786 6.29325 114.263 5.78706C114.74 5.28088 115.383 4.99633 116.054 4.99512H202.177C202.847 4.9976 203.489 5.28285 203.964 5.78904C204.439 6.29523 204.709 6.98157 204.715 7.69929V137.38C204.715 138.102 204.448 138.795 203.972 139.306C203.496 139.817 202.851 140.106 202.177 140.108ZM116.054 5.09067C115.409 5.09193 114.79 5.36718 114.334 5.85611C113.877 6.34505 113.62 7.00783 113.619 7.69929V137.38C113.62 138.072 113.877 138.735 114.334 139.224C114.79 139.712 115.409 139.988 116.054 139.989H202.177C202.823 139.988 203.441 139.712 203.898 139.224C204.354 138.735 204.611 138.072 204.612 137.38V7.69929C204.611 7.00783 204.354 6.34505 203.898 5.85611C203.441 5.36718 202.823 5.09193 202.177 5.09067H116.054Z" fill="#EBEBEB"/>
<path d="M31.5129 161.417H58.3398L58.3398 101.041H31.5129L31.5129 161.417Z" fill="#E6E6E6"/>
<path d="M34.2178 161.417H31.5195V153.194H37.0455L34.2178 161.417Z" fill="#F0F0F0"/>
<path d="M102.45 161.417H129.277V101.041H102.45V161.417Z" fill="#E6E6E6"/>
<path d="M31.5141 156.372H104.801V101.042H31.5141V156.372Z" fill="#F0F0F0"/>
<path d="M33.6077 118.666L102.711 118.666V103.492L33.6077 103.492V118.666Z" fill="#E6E6E6"/>
<path d="M63.2699 108.193H73.0551C75.1574 108.196 77.2382 107.739 79.1705 106.852C81.1028 105.965 82.8462 104.666 84.2943 103.033H52.0352C53.4822 104.666 55.2247 105.966 57.1564 106.853C59.088 107.74 61.1682 108.196 63.2699 108.193Z" fill="#F0F0F0"/>
<path d="M102.106 161.417H104.804V153.194H99.2734L102.106 161.417Z" fill="#F0F0F0"/>
<path d="M33.6077 136.291H102.711V121.117L33.6077 121.117V136.291Z" fill="#E6E6E6"/>
<path d="M63.2699 125.837H73.0551C75.1587 125.837 77.2401 125.378 79.1725 124.487C81.1048 123.597 82.8475 122.294 84.2943 120.658H52.0352C53.4808 122.294 55.2227 123.597 57.1544 124.488C59.086 125.378 61.1669 125.837 63.2699 125.837Z" fill="#F0F0F0"/>
<path d="M33.6077 153.916H102.711V138.742H33.6077V153.916Z" fill="#E6E6E6"/>
<path d="M63.2699 143.462H73.0551C75.158 143.463 77.2391 143.006 79.1714 142.117C81.1037 141.228 82.8468 139.927 84.2943 138.293H52.0352C53.4816 139.927 55.2238 141.229 57.1554 142.117C59.0871 143.006 61.1676 143.464 63.2699 143.462Z" fill="#F0F0F0"/>
<path d="M39.3093 81.2041H37.396C37.2506 81.2041 37.1328 81.3303 37.1328 81.486V100.759C37.1328 100.915 37.2506 101.041 37.396 101.041H39.3093C39.4546 101.041 39.5724 100.915 39.5724 100.759V81.486C39.5724 81.3303 39.4546 81.2041 39.3093 81.2041Z" fill="#EBEBEB"/>
<path d="M39.5724 83.249H37.1328V90.4681H39.5724V83.249Z" fill="#FAFAFA"/>
<path d="M39.5724 92.6943H37.1328V97.1472H39.5724V92.6943Z" fill="#FAFAFA"/>
<path d="M49.7073 81.2041H39.8374C39.692 81.2041 39.5742 81.3303 39.5742 81.486V100.759C39.5742 100.915 39.692 101.041 39.8374 101.041H49.7073C49.8527 101.041 49.9705 100.915 49.9705 100.759V81.486C49.9705 81.3303 49.8527 81.2041 49.7073 81.2041Z" fill="#E0E0E0"/>
<path d="M43.2047 79.1592H41.0907C40.9306 79.1592 40.8008 79.2982 40.8008 79.4697V100.73C40.8008 100.902 40.9306 101.041 41.0907 101.041H43.2047C43.3648 101.041 43.4946 100.902 43.4946 100.73V79.4697C43.4946 79.2982 43.3648 79.1592 43.2047 79.1592Z" fill="#EBEBEB"/>
<path d="M43.4868 82.0215H40.793V83.9756H43.4868V82.0215Z" fill="#FAFAFA"/>
<path d="M43.4868 87.6875H40.793V89.6416H43.4868V87.6875Z" fill="#FAFAFA"/>
<path d="M43.4868 93.3584H40.793V95.3125H43.4868V93.3584Z" fill="#FAFAFA"/>
<path d="M54.6885 79.1592H43.8016C43.6415 79.1592 43.5117 79.2982 43.5117 79.4697V100.73C43.5117 100.902 43.6415 101.041 43.8016 101.041H54.6885C54.8486 101.041 54.9784 100.902 54.9784 100.73V79.4697C54.9784 79.2982 54.8486 79.1592 54.6885 79.1592Z" fill="#E0E0E0"/>
<path d="M46.8952 81.2041H44.9819C44.8366 81.2041 44.7188 81.3303 44.7188 81.486V100.759C44.7188 100.915 44.8366 101.041 44.9819 101.041H46.8952C47.0406 101.041 47.1584 100.915 47.1584 100.759V81.486C47.1584 81.3303 47.0406 81.2041 46.8952 81.2041Z" fill="#EBEBEB"/>
<path d="M47.1584 85.1025H44.7188V88.8053H47.1584V85.1025Z" fill="#FAFAFA"/>
<path d="M47.1584 89.9473H44.7188V92.231H47.1584V89.9473Z" fill="#FAFAFA"/>
<path d="M57.2933 81.2041H47.4233C47.278 81.2041 47.1602 81.3303 47.1602 81.486V100.759C47.1602 100.915 47.278 101.041 47.4233 101.041H57.2933C57.4386 101.041 57.5564 100.915 57.5564 100.759V81.486C57.5564 81.3303 57.4386 81.2041 57.2933 81.2041Z" fill="#E0E0E0"/>
<path d="M50.4821 83.9756H48.368C48.2079 83.9756 48.0781 84.1146 48.0781 84.2861V100.736C48.0781 100.907 48.2079 101.046 48.368 101.046H50.4821C50.6422 101.046 50.772 100.907 50.772 100.736V84.2861C50.772 84.1146 50.6422 83.9756 50.4821 83.9756Z" fill="#EBEBEB"/>
<path d="M50.7681 87.8115H48.0742V90.9696H50.7681V87.8115Z" fill="#FAFAFA"/>
<path d="M50.7681 98.1699H48.0742V98.92H50.7681V98.1699Z" fill="#FAFAFA"/>
<path d="M50.7681 91.6719H48.0742V94.8299H50.7681V91.6719Z" fill="#FAFAFA"/>
<path d="M61.9697 83.9756H51.0829C50.9228 83.9756 50.793 84.1146 50.793 84.2861V100.736C50.793 100.907 50.9228 101.046 51.0829 101.046H61.9697C62.1298 101.046 62.2596 100.907 62.2596 100.736V84.2861C62.2596 84.1146 62.1298 83.9756 61.9697 83.9756Z" fill="#E0E0E0"/>
<path d="M54.0548 80.6455H52.1504C52.0026 80.6455 51.8828 80.7739 51.8828 80.9322V100.76C51.8828 100.918 52.0026 101.046 52.1504 101.046H54.0548C54.2026 101.046 54.3224 100.918 54.3224 100.76V80.9322C54.3224 80.7739 54.2026 80.6455 54.0548 80.6455Z" fill="#EBEBEB"/>
<path d="M54.3224 82.7471H51.8828V90.1716H54.3224V82.7471Z" fill="#FAFAFA"/>
<path d="M54.3224 92.4551H51.8828V97.0321H54.3224V92.4551Z" fill="#FAFAFA"/>
<path d="M64.449 80.6455H54.5879C54.4401 80.6455 54.3203 80.7739 54.3203 80.9322V100.76C54.3203 100.918 54.4401 101.046 54.5879 101.046H64.449C64.5968 101.046 64.7166 100.918 64.7166 100.76V80.9322C64.7166 80.7739 64.5968 80.6455 64.449 80.6455Z" fill="#E0E0E0"/>
<path d="M57.9692 82.7998H55.8106C55.6628 82.7998 55.543 82.9281 55.543 83.0865V100.754C55.543 100.913 55.6628 101.041 55.8106 101.041H57.9692C58.117 101.041 58.2368 100.913 58.2368 100.754V83.0865C58.2368 82.9281 58.117 82.7998 57.9692 82.7998Z" fill="#EBEBEB"/>
<path d="M58.2368 85.1836H55.543V86.8128H58.2368V85.1836Z" fill="#FAFAFA"/>
<path d="M58.2368 89.9092H55.543V91.5384H58.2368V89.9092Z" fill="#FAFAFA"/>
<path d="M58.2368 94.6338H55.543V96.263H58.2368V94.6338Z" fill="#FAFAFA"/>
<path d="M69.4569 82.7998H58.5254C58.3776 82.7998 58.2578 82.9281 58.2578 83.0865V100.754C58.2578 100.913 58.3776 101.041 58.5254 101.041H69.4569C69.6047 101.041 69.7245 100.913 69.7245 100.754V83.0865C69.7245 82.9281 69.6047 82.7998 69.4569 82.7998Z" fill="#E0E0E0"/>
<path d="M61.6413 81.2041H59.728C59.5827 81.2041 59.4648 81.3303 59.4648 81.486V100.759C59.4648 100.915 59.5827 101.041 59.728 101.041H61.6413C61.7867 101.041 61.9045 100.915 61.9045 100.759V81.486C61.9045 81.3303 61.7867 81.2041 61.6413 81.2041Z" fill="#EBEBEB"/>
<path d="M61.9045 85.1025H59.4648V88.8053H61.9045V85.1025Z" fill="#FAFAFA"/>
<path d="M61.9045 89.9473H59.4648V92.231H61.9045V89.9473Z" fill="#FAFAFA"/>
<path d="M72.0394 81.2041H62.1694C62.0241 81.2041 61.9062 81.3303 61.9062 81.486V100.759C61.9062 100.915 62.0241 101.041 62.1694 101.041H72.0394C72.1847 101.041 72.3025 100.915 72.3025 100.759V81.486C72.3025 81.3303 72.1847 81.2041 72.0394 81.2041Z" fill="#E0E0E0"/>
<path d="M65.2321 83.9756H63.118C62.9579 83.9756 62.8281 84.1146 62.8281 84.2861V100.736C62.8281 100.907 62.9579 101.046 63.118 101.046H65.2321C65.3922 101.046 65.522 100.907 65.522 100.736V84.2861C65.522 84.1146 65.3922 83.9756 65.2321 83.9756Z" fill="#EBEBEB"/>
<path d="M65.5181 87.8115H62.8242V90.9696H65.5181V87.8115Z" fill="#FAFAFA"/>
<path d="M65.5181 98.1699H62.8242V98.92H65.5181V98.1699Z" fill="#FAFAFA"/>
<path d="M65.5181 91.6719H62.8242V94.8299H65.5181V91.6719Z" fill="#FAFAFA"/>
<path d="M76.7158 83.9756H65.829C65.6689 83.9756 65.5391 84.1146 65.5391 84.2861V100.736C65.5391 100.907 65.6689 101.046 65.829 101.046H76.7158C76.8759 101.046 77.0057 100.907 77.0057 100.736V84.2861C77.0057 84.1146 76.8759 83.9756 76.7158 83.9756Z" fill="#E0E0E0"/>
<path d="M30.9744 58.1943L128.555 58.1943V26.7236L30.9744 26.7236V58.1943Z" fill="#E6E6E6"/>
<path d="M28.904 58.1943L127.586 58.1943V26.7236L28.904 26.7236V58.1943Z" fill="#F0F0F0"/>
<path d="M30.9744 62.3184L128.555 62.3184V58.2L30.9744 58.2V62.3184Z" fill="#E6E6E6"/>
<path d="M25.4587 62.3184L124.141 62.3184V58.2L25.4587 58.2V62.3184Z" fill="#F0F0F0"/>
<path d="M124.688 55.0936V29.8291L31.7991 29.8291V55.0936L124.688 55.0936Z" fill="#FAFAFA"/>
<path d="M100.108 55.0936L83.1021 29.8291H65.6992L82.7052 55.0936H100.108Z" fill="white"/>
<path d="M123.346 52.6713C123.401 52.6713 123.455 52.6476 123.494 52.6055C123.533 52.5634 123.555 52.5063 123.555 52.4468V31.8501C123.548 31.7968 123.523 31.748 123.485 31.7128C123.447 31.6776 123.398 31.6582 123.348 31.6582C123.298 31.6582 123.249 31.6776 123.211 31.7128C123.173 31.748 123.148 31.7968 123.141 31.8501V52.4468C123.141 52.5055 123.162 52.5619 123.2 52.6039C123.239 52.6458 123.291 52.67 123.346 52.6713Z" fill="#F0F0F0"/>
<path d="M76.1643 55.0936L59.1538 29.8291H53.1328L70.1388 55.0936H76.1643Z" fill="white"/>
<path d="M32.168 55.0936V29.8291H31.7978V55.0936H32.168Z" fill="#E6E6E6"/>
<path opacity="0.4" d="M28.2188 32.9587H125.799L126.067 31.0381H28.4863L28.2188 32.9587Z" fill="#E6E6E6"/>
<path opacity="0.4" d="M28.2188 36.1316H125.799L126.067 34.2109H28.4863L28.2188 36.1316Z" fill="#E6E6E6"/>
<path opacity="0.4" d="M28.2188 39.3083H125.799L126.067 37.3877H28.4863L28.2188 39.3083Z" fill="#E6E6E6"/>
<path opacity="0.4" d="M28.2188 42.4812H125.799L126.067 40.5605H28.4863L28.2188 42.4812Z" fill="#E6E6E6"/>
<path opacity="0.4" d="M28.2188 45.6578H125.799L126.067 43.7324H28.4863L28.2188 45.6578Z" fill="#E6E6E6"/>
<path opacity="0.4" d="M28.2188 48.8308H125.799L126.067 46.9102H28.4863L28.2188 48.8308Z" fill="#E6E6E6"/>
<path d="M144.369 98.1885H182.016V26.7237H144.369V98.1885Z" fill="#E6E6E6"/>
<path d="M149.011 28.6827C149.068 28.6832 149.123 28.6666 149.172 28.635C149.261 28.5776 158.119 22.9352 160.91 22.9352C163.702 22.9352 172.145 28.5728 172.23 28.6302C172.265 28.6562 172.305 28.6742 172.347 28.6831C172.389 28.6919 172.432 28.6914 172.474 28.6815C172.516 28.6716 172.556 28.6527 172.59 28.6258C172.625 28.5988 172.654 28.5646 172.676 28.5251C172.699 28.4869 172.715 28.4442 172.722 28.3994C172.73 28.3546 172.729 28.3087 172.72 28.2642C172.711 28.2198 172.694 28.1778 172.669 28.1405C172.645 28.1033 172.614 28.0716 172.578 28.0473C172.221 27.8132 163.89 22.252 160.924 22.252C157.958 22.252 149.234 27.8084 148.882 28.0473C148.823 28.085 148.778 28.1421 148.753 28.21C148.727 28.2779 148.724 28.3528 148.742 28.4232C148.76 28.4937 148.799 28.5558 148.854 28.6001C148.908 28.6443 148.974 28.6683 149.042 28.6684L149.011 28.6827Z" fill="#F0F0F0"/>
<path d="M140.289 98.1885H179.176V26.7237H140.289V98.1885Z" fill="#F0F0F0"/>
<path d="M175.926 94.7014V30.2168L143.555 30.2168V94.7014H175.926Z" fill="white"/>
<path d="M186.034 131.304H162.574V161.418H186.034V131.304Z" fill="#E0E0E0"/>
<path d="M186.034 131.303H162.574L167.284 122.321H190.744L186.034 131.303Z" fill="#E0E0E0"/>
<path d="M139.706 122.321H116.246L120.956 131.303H144.415L139.706 122.321Z" fill="#F5F5F5"/>
<path d="M120.954 161.417H162.574V131.303H120.954V161.417Z" fill="#F5F5F5"/>
<path d="M149.48 153.376H162.574V139.349H149.48V153.376Z" fill="#F0F0F0"/>
<path d="M126.569 147.419H134.102V139.349H126.569V147.419Z" fill="#F0F0F0"/>
<path d="M126.569 157.408H134.102V149.339H126.569V157.408Z" fill="#F0F0F0"/>
<path d="M169.331 139.344H162.574V153.371H169.331V139.344Z" fill="#E6E6E6"/>
<path d="M111.498 182.993C159.257 182.993 197.973 180.572 197.973 177.585C197.973 174.598 159.257 172.177 111.498 172.177C63.7396 172.177 25.0234 174.598 25.0234 177.585C25.0234 180.572 63.7396 182.993 111.498 182.993Z" fill="#F5F5F5"/>
<path d="M76.2222 48.7437C79.2735 46.5072 80.0547 42.0444 77.967 38.7756C75.8792 35.5069 71.7131 34.6701 68.6617 36.9066C65.6103 39.143 64.8292 43.6059 66.9169 46.8746C69.0047 50.1434 73.1708 50.9802 76.2222 48.7437Z" fill="#407BFF"/>
<path d="M71.805 42.2038L68.0586 40.4933C68.1387 40.4394 68.2316 40.4113 68.3262 40.4121H76.6084C76.703 40.4118 76.7957 40.4399 76.876 40.4933L73.1296 42.2038C72.9199 42.2982 72.6948 42.3469 72.4673 42.3469C72.2398 42.3469 72.0147 42.2982 71.805 42.2038Z" fill="white"/>
<path d="M77.1213 41.1342V45.028C77.1213 45.1813 77.0644 45.3284 76.9632 45.4368C76.862 45.5452 76.7247 45.6061 76.5816 45.6061H68.2994C68.1562 45.6061 68.019 45.5452 67.9178 45.4368C67.8166 45.3284 67.7597 45.1813 67.7597 45.028V41.1342C67.7572 41.1104 67.7572 41.0863 67.7597 41.0625L71.5909 42.8064C71.8579 42.9265 72.1442 42.9898 72.4338 42.9927C72.7263 42.9903 73.0157 42.927 73.2857 42.8064L77.1123 41.0625C77.1179 41.0859 77.1209 41.11 77.1213 41.1342Z" fill="white"/>
<path d="M111.149 11.9299C112.199 8.13243 110.177 4.14205 106.632 3.01717C103.087 1.8923 99.3616 4.0589 98.3115 7.85641C97.2614 11.6539 99.2839 15.6443 102.829 16.7692C106.374 17.8941 110.099 15.7275 111.149 11.9299Z" fill="#407BFF"/>
<path d="M107.93 6.62891H101.547C101.229 6.63513 100.925 6.77449 100.701 7.01726C100.477 7.26003 100.35 7.58701 100.348 7.92844V11.4496C100.349 11.7951 100.477 12.1262 100.706 12.3705C100.934 12.6148 101.243 12.7527 101.565 12.7539H106.235L106.199 13.9866L107.381 12.7539H107.93C108.252 12.7514 108.56 12.6132 108.788 12.3691C109.016 12.1251 109.145 11.7948 109.147 11.4496V7.92844C109.145 7.58373 109.016 7.25393 108.788 7.01062C108.56 6.76732 108.251 6.63016 107.93 6.62891ZM101.423 8.1291C101.423 8.03236 101.458 7.9395 101.522 7.87065C101.585 7.80179 101.671 7.76248 101.761 7.76122H103.224C103.315 7.76248 103.401 7.80179 103.464 7.87065C103.528 7.9395 103.563 8.03236 103.563 8.1291C103.562 8.22458 103.526 8.31571 103.462 8.38278C103.399 8.44984 103.313 8.48744 103.224 8.48743H101.761C101.716 8.49001 101.67 8.48268 101.627 8.4659C101.584 8.44911 101.545 8.4232 101.512 8.38973C101.478 8.35626 101.452 8.31592 101.433 8.27113C101.415 8.22635 101.405 8.17804 101.405 8.1291H101.423ZM107.568 11.5308H105.035C104.946 11.5308 104.861 11.4931 104.799 11.4259C104.736 11.3587 104.701 11.2675 104.701 11.1725C104.701 11.0775 104.736 10.9863 104.799 10.9191C104.861 10.8519 104.946 10.8142 105.035 10.8142H107.568C107.657 10.8142 107.742 10.8519 107.805 10.9191C107.868 10.9863 107.903 11.0775 107.903 11.1725C107.903 11.2675 107.868 11.3587 107.805 11.4259C107.742 11.4931 107.657 11.5308 107.568 11.5308ZM107.568 10.0115H102.083C101.993 10.0103 101.908 9.97145 101.846 9.90349C101.783 9.83553 101.748 9.74389 101.748 9.64841C101.748 9.55338 101.783 9.46224 101.846 9.39504C101.909 9.32784 101.994 9.29009 102.083 9.29009H107.551C107.639 9.29009 107.724 9.32784 107.787 9.39504C107.85 9.46224 107.885 9.55338 107.885 9.64841C107.885 9.74389 107.85 9.83553 107.787 9.90349C107.725 9.97145 107.64 10.0103 107.551 10.0115H107.568ZM107.568 8.48743H104.33C104.242 8.48743 104.157 8.44968 104.094 8.38248C104.031 8.31528 103.996 8.22414 103.996 8.1291C103.995 8.08142 104.004 8.03408 104.02 7.98978C104.037 7.94549 104.061 7.9051 104.092 7.87094C104.123 7.83678 104.16 7.80951 104.201 7.79068C104.242 7.77186 104.286 7.76185 104.33 7.76122H107.568C107.658 7.76371 107.743 7.80357 107.805 7.87229C107.868 7.94102 107.903 8.03317 107.903 8.1291C107.902 8.17762 107.893 8.22551 107.875 8.26997C107.856 8.31443 107.83 8.35454 107.797 8.38795C107.764 8.42135 107.726 8.44736 107.683 8.46445C107.641 8.48154 107.596 8.48935 107.551 8.48743H107.568Z" fill="white"/>
<path d="M89.665 24.0748C91.4659 20.6158 90.3082 16.2478 87.0792 14.3186C83.8503 12.3894 79.7727 13.6295 77.9718 17.0885C76.1709 20.5475 77.3285 24.9155 80.5575 26.8447C83.7865 28.7739 87.8641 27.5338 89.665 24.0748Z" fill="#407BFF"/>
<path d="M86.7105 17.5459H80.9125C80.6329 17.5459 80.3647 17.6646 80.1666 17.8759C79.9685 18.0872 79.8566 18.374 79.8555 18.6735V22.4956C79.8555 22.6451 79.8831 22.7932 79.9368 22.9312C79.9905 23.0692 80.0691 23.1944 80.1682 23.2997C80.2673 23.405 80.3849 23.4882 80.5142 23.5445C80.6434 23.6009 80.7818 23.6292 80.9214 23.628H86.7194C86.999 23.628 87.2672 23.5093 87.4653 23.298C87.6634 23.0867 87.7753 22.7999 87.7764 22.5004V18.6783C87.7764 18.5287 87.7488 18.3807 87.6951 18.2427C87.6414 18.1047 87.5628 17.9795 87.4637 17.8742C87.3646 17.7689 87.247 17.6857 87.1177 17.6294C86.9885 17.573 86.85 17.5447 86.7105 17.5459ZM82.8927 22.1946V18.9888L85.4706 20.5798L82.8927 22.1946Z" fill="white"/>
<path d="M131.265 21.1224C134.609 19.4336 136.042 15.1603 134.465 11.5778C132.889 7.99535 128.9 6.46025 125.555 8.1491C122.211 9.83795 120.778 14.1112 122.355 17.6937C123.931 21.2762 127.92 22.8113 131.265 21.1224Z" fill="#407BFF"/>
<path d="M131.371 15.5535C131.732 15.1611 131.98 14.6654 132.085 14.1258C132.191 13.5862 132.148 13.0256 131.963 12.5112C131.779 11.9967 131.459 11.5502 131.044 11.2252C130.628 10.9002 130.134 10.7104 129.62 10.6786C129.107 10.6468 128.595 10.7743 128.147 11.0459C127.7 11.3175 127.334 11.7216 127.096 12.2099C126.857 12.6981 126.754 13.2497 126.801 13.7987C126.847 14.3477 127.04 14.8707 127.357 15.3051C127.174 15.458 127 15.6156 126.826 15.7829C126.572 16.0122 126.327 16.2606 126.086 16.4804C125.845 16.7002 125.604 16.9582 125.368 17.2066L125.015 17.5793C124.954 17.6386 124.904 17.71 124.868 17.7895C124.846 17.8344 124.831 17.8828 124.824 17.9328C124.814 17.9897 124.814 18.048 124.824 18.1048C124.83 18.2103 124.872 18.3097 124.942 18.3845C125.012 18.4592 125.104 18.5042 125.203 18.5109C125.258 18.5185 125.313 18.5185 125.368 18.5109L125.497 18.4632C125.572 18.4239 125.639 18.3687 125.693 18.3007C125.809 18.1765 125.93 18.0523 126.041 17.9233C126.273 17.6748 126.487 17.4168 126.719 17.1588C126.951 16.9008 127.165 16.6333 127.37 16.361C127.522 16.1746 127.665 15.9883 127.816 15.7924C128.333 16.2268 128.981 16.4425 129.636 16.3985C130.292 16.3544 130.909 16.0537 131.371 15.5535ZM127.964 15.1235C127.666 14.805 127.463 14.3989 127.38 13.9567C127.298 13.5145 127.34 13.0561 127.501 12.6395C127.662 12.2228 127.934 11.8667 128.284 11.6161C128.634 11.3655 129.046 11.2317 129.467 11.2317C129.887 11.2317 130.299 11.3655 130.649 11.6161C130.999 11.8667 131.271 12.2228 131.432 12.6395C131.593 13.0561 131.635 13.5145 131.553 13.9567C131.47 14.3989 131.267 14.805 130.97 15.1235C130.571 15.5501 130.03 15.7896 129.467 15.7896C128.903 15.7896 128.362 15.5501 127.964 15.1235Z" fill="white"/>
<path d="M148.062 38.6402C151.113 36.4037 151.895 31.9409 149.807 28.6721C147.719 25.4034 143.553 24.5666 140.502 26.803C137.45 29.0395 136.669 33.5024 138.757 36.7711C140.845 40.0398 145.011 40.8767 148.062 38.6402Z" fill="#407BFF"/>
<path d="M148.573 32.7056C148.573 32.7056 148.573 32.7056 148.573 32.677C148.57 32.4402 148.552 32.2039 148.519 31.9699C148.359 30.9103 147.857 29.9444 147.101 29.24C146.345 28.5356 145.382 28.1373 144.38 28.1143H144.166C143.976 28.1175 143.787 28.1351 143.6 28.1668C142.594 28.3425 141.68 28.8954 141.019 29.7269C140.359 30.5583 139.997 31.6141 139.996 32.7056C139.996 32.7056 139.996 32.7056 139.996 32.7295C139.996 32.7534 139.996 32.7295 139.996 32.7582C139.997 32.9948 140.013 33.2311 140.045 33.4653C140.21 34.5397 140.724 35.517 141.497 36.2237C142.27 36.9304 143.252 37.3208 144.269 37.3257C144.496 37.3254 144.722 37.3062 144.947 37.2683C145.947 37.0915 146.856 36.5421 147.515 35.7169C148.173 34.8917 148.538 33.8438 148.546 32.7582C148.546 32.7582 148.573 32.7343 148.573 32.7056ZM147.444 34.5212H146.695C146.807 34.0518 146.874 33.5716 146.896 33.0878H147.855C147.812 33.597 147.672 34.0913 147.444 34.5403V34.5212ZM141.12 30.8901H141.869C141.758 31.3595 141.691 31.8397 141.669 32.3234H140.71C140.758 31.8277 140.898 31.3471 141.12 30.9092V30.8901ZM146.178 32.0654C146.178 32.1562 146.178 32.2422 146.178 32.333H144.612V30.8997H145.95C146.061 31.2859 146.137 31.6827 146.178 32.0845V32.0654ZM144.63 30.1543V28.936C144.732 28.977 144.829 29.0299 144.92 29.0937C145.259 29.3711 145.528 29.736 145.7 30.1543H144.63ZM143.934 28.9408V30.1543H142.859C143.06 29.6202 143.445 29.1892 143.934 28.9504V28.9408ZM143.934 30.8997V32.333H142.369C142.394 31.8476 142.471 31.3668 142.596 30.8997H143.934ZM140.736 33.3315C140.736 33.2503 140.736 33.1691 140.71 33.0878H141.673C141.673 33.2025 141.673 33.3124 141.673 33.4271C141.706 33.7994 141.765 34.1684 141.851 34.5307H141.098C140.915 34.1589 140.793 33.7567 140.736 33.3411V33.3315ZM142.387 33.3602C142.387 33.2694 142.387 33.1786 142.387 33.0878H143.952V34.5212H142.614C142.505 34.1458 142.429 33.7603 142.387 33.3697V33.3602ZM143.934 35.2713V36.5278C143.832 36.4887 143.734 36.4358 143.644 36.3701C143.305 36.0927 143.036 35.7278 142.864 35.3095L143.934 35.2713ZM144.63 36.4896V35.2856H145.705C145.509 35.8325 145.124 36.2774 144.63 36.5278V36.4896ZM144.63 34.5259V33.0926H146.195C146.17 33.578 146.094 34.0589 145.968 34.5259H144.63ZM146.891 32.3377C146.891 32.2279 146.891 32.1132 146.891 31.9985C146.857 31.6265 146.797 31.2577 146.713 30.8949H147.467C147.654 31.2696 147.782 31.6748 147.846 32.0941C147.846 32.1753 147.846 32.2565 147.872 32.3377H146.891ZM146.963 30.1496H146.463C146.367 29.8885 146.249 29.6374 146.111 29.3995C146.204 29.4581 146.295 29.5219 146.383 29.5906C146.595 29.7581 146.79 29.9504 146.963 30.1639V30.1496ZM142.449 29.4042C142.311 29.6411 142.193 29.8905 142.097 30.1496H141.602C141.848 29.8618 142.134 29.6154 142.449 29.4186V29.4042ZM141.606 35.2713H142.101C142.199 35.5335 142.319 35.7861 142.458 36.0261C142.14 35.8288 141.852 35.5789 141.606 35.2856V35.2713ZM146.115 36.05C146.253 35.8115 146.371 35.5605 146.468 35.2999H146.963C146.716 35.5929 146.43 35.8456 146.115 36.05Z" fill="white"/>
<path d="M151.136 63.7896C154.188 61.5531 154.969 57.0903 152.881 53.8215C150.793 50.5528 146.627 49.716 143.576 51.9525C140.524 54.1889 139.743 58.6518 141.831 61.9205C143.919 65.1893 148.085 66.0261 151.136 63.7896Z" fill="#407BFF"/>
<path d="M147.357 53.5654C146.499 53.5917 145.679 53.9479 145.047 54.5689C144.415 55.1898 144.013 56.034 143.914 56.9467C143.816 57.8595 144.027 58.7797 144.51 59.5389C144.994 60.2981 145.716 60.8455 146.545 61.0807L147.357 62.1892L148.168 61.0807C148.998 60.8455 149.72 60.2981 150.203 59.5389C150.686 58.7797 150.898 57.8595 150.799 56.9467C150.701 56.034 150.298 55.1898 149.666 54.5689C149.034 53.9479 148.214 53.5917 147.357 53.5654ZM147.357 58.9594C147.064 58.9585 146.778 58.8647 146.535 58.6898C146.292 58.5149 146.103 58.2669 145.992 57.977C145.88 57.687 145.852 57.3683 145.909 57.0609C145.967 56.7535 146.108 56.4713 146.316 56.25C146.523 56.0286 146.787 55.878 147.074 55.8172C147.361 55.7564 147.659 55.7881 147.929 55.9083C148.199 56.0285 148.43 56.2318 148.593 56.4925C148.755 56.7533 148.842 57.0597 148.842 57.3733C148.845 57.584 148.809 57.7932 148.735 57.9887C148.662 58.1842 148.553 58.3621 148.415 58.512C148.276 58.6619 148.112 58.7808 147.93 58.8617C147.748 58.9427 147.553 58.984 147.357 58.9833V58.9594Z" fill="white"/>
<path d="M107.496 173.466H104.057L103.91 164.933H107.349L107.496 173.466Z" fill="#B55B52"/>
<path d="M128.153 173.466H124.714L123.18 164.933H126.618L128.153 173.466Z" fill="#B55B52"/>
<path d="M124.476 173.041H128.343C128.41 173.041 128.476 173.066 128.528 173.112C128.58 173.159 128.616 173.223 128.628 173.294L129.235 176.567C129.248 176.648 129.245 176.731 129.226 176.811C129.206 176.89 129.17 176.964 129.121 177.027C129.071 177.09 129.01 177.14 128.94 177.175C128.87 177.209 128.794 177.227 128.717 177.226C127.379 177.198 126.715 177.116 125.015 177.116C123.967 177.116 121.813 177.231 120.368 177.231C118.923 177.231 118.771 175.702 119.365 175.564C122.041 174.943 123.049 174.087 123.914 173.27C124.069 173.123 124.269 173.041 124.476 173.041Z" fill="#263238"/>
<path d="M104.089 173.041H107.849C107.917 173.041 107.982 173.066 108.034 173.112C108.086 173.159 108.122 173.223 108.134 173.294L108.736 176.567C108.752 176.647 108.75 176.73 108.731 176.81C108.713 176.889 108.678 176.964 108.629 177.027C108.58 177.09 108.519 177.141 108.45 177.175C108.38 177.21 108.304 177.227 108.228 177.226C106.89 177.198 104.919 177.116 103.215 177.116C101.221 177.116 99.4997 177.231 97.1627 177.231C95.7533 177.231 95.3786 175.702 95.9897 175.564C98.6969 174.933 100.896 174.866 103.255 173.328C103.503 173.152 103.792 173.053 104.089 173.041Z" fill="#263238"/>
<path d="M103.986 57.8121L100.315 54.2861C100.315 54.2861 91.3017 63.1535 89.5355 63.1249C87.1271 63.0819 82.123 62.8143 79.331 62.1693C78.8315 62.4942 77.8057 63.7316 77.7031 64.2859C80.9009 66.9948 89.2322 68.9346 91.324 68.1797C96.0872 66.4693 103.986 57.8121 103.986 57.8121Z" fill="#B55B52"/>
<path d="M106.047 55.7669C106.02 59.288 97.2831 66.316 97.2831 66.316L92.2031 60.0668C94.1821 57.5976 96.3958 55.3559 98.8084 53.378C102.385 50.5926 106.074 51.9017 106.047 55.7669Z" fill="#263238"/>
<path opacity="0.2" d="M97.2812 66.3168C97.2812 66.3168 105.349 59.8287 106.001 56.1976C104.97 55.0653 99.4533 58.3046 97.2812 66.3168Z" fill="black"/>
<path d="M79.8817 62.3606L76.8355 59.3555L74.1016 63.1107C75.4697 63.9083 76.9437 64.4771 78.4724 64.7973L79.8817 62.3606Z" fill="#B55B52"/>
<path d="M73.2028 57.5879L72.2617 60.4211L74.0992 63.1109L76.8332 59.3556L73.2028 57.5879Z" fill="#B55B52"/>
<path opacity="0.2" d="M103.91 164.938L103.986 169.333H107.429L107.353 164.938H103.91Z" fill="black"/>
<path opacity="0.2" d="M126.623 164.938H123.18L123.974 169.333H127.412L126.623 164.938Z" fill="black"/>
<path d="M101.583 52.0508C101.583 52.0508 97.2661 63.1828 100.651 83.9037H119.049C119.245 80.8794 117.809 66.1211 120.86 51.8644C118.831 51.4438 116.78 51.1645 114.718 51.0283C112.114 50.8682 109.504 50.8682 106.9 51.0283C105.106 51.2225 103.328 51.5643 101.583 52.0508Z" fill="#263238"/>
<path opacity="0.2" d="M116.786 55.3806C116.425 57.7312 116.987 63.3402 118.927 69.8283C119.02 64.2721 119.571 58.7356 120.573 53.2832V53.2497C119.364 53.1207 117.13 53.1828 116.786 55.3806Z" fill="black"/>
<path d="M113.875 43.2168C113.322 45.9114 112.983 49.2558 114.718 51.0522C114.718 51.0522 113.648 53.7898 108.969 53.7898C104.697 53.7898 106.9 51.0522 106.9 51.0522C109.719 50.3356 109.661 46.6185 109.219 44.5259L113.875 43.2168Z" fill="#B55B52"/>
<path d="M108.749 53.546L107.737 54.75C107.702 54.7915 107.678 54.8419 107.667 54.8964C107.656 54.9509 107.658 55.0074 107.674 55.0605L108 56.1164C108.017 56.1762 108.051 56.2287 108.097 56.2665C108.144 56.3042 108.2 56.3253 108.258 56.3266L109.347 56.384C109.399 56.3864 109.451 56.3746 109.498 56.3495C109.545 56.3244 109.585 56.2869 109.614 56.2406L110.265 55.2182C110.305 55.1625 110.326 55.0946 110.326 55.0247C110.326 54.9548 110.305 54.8869 110.265 54.8312L109.208 53.546C109.18 53.5099 109.145 53.4809 109.106 53.4609C109.066 53.441 109.023 53.4307 108.979 53.4307C108.935 53.4307 108.892 53.441 108.852 53.4609C108.812 53.4809 108.777 53.5099 108.749 53.546Z" fill="#407BFF"/>
<path d="M108.977 53.283C109.494 54.2146 109.781 55.2718 109.811 56.355C109.811 56.355 115.716 54.1382 115.519 50.8989C115.519 50.8989 114.699 50.3686 114.181 49.9434C114.172 49.9386 113.936 51.9834 108.977 53.283Z" fill="white"/>
<path d="M108.977 53.2828C108.421 54.1552 108.012 55.1255 107.768 56.1494C107.768 56.1494 105.159 54.2383 106.029 51.0182C106.52 50.8074 107.025 50.6381 107.541 50.5117C107.541 50.5117 107.144 52.59 108.977 53.2828Z" fill="white"/>
<path d="M108.497 56.1592C108.497 56.1592 106.825 69.3504 106.789 71.6437C106.811 73.8157 107.13 75.9725 107.735 78.0458C107.735 78.0458 108.881 75.7143 109.073 71.5481C109.264 67.382 109.032 58.4955 109.117 56.1592H108.497Z" fill="#407BFF"/>
<path opacity="0.2" d="M109.218 44.5015C109.481 45.7293 109.611 47.5162 109.098 48.9256C109.536 48.8559 109.963 48.7175 110.364 48.5147C111.965 47.7169 112.773 46.4603 113.625 44.5923C113.7 44.1145 113.785 43.6367 113.879 43.1924L109.218 44.5015Z" fill="black"/>
<path d="M105.434 40.9469C105.508 41.3892 105.665 41.811 105.895 42.1869C106.125 42.5629 106.423 42.8854 106.772 43.1351C107.717 43.7944 108.556 42.9631 108.587 41.8069C108.618 40.7654 108.172 39.1696 107.079 38.9785C106.838 38.9446 106.593 38.9741 106.366 39.0646C106.138 39.155 105.934 39.3036 105.772 39.4976C105.61 39.6915 105.494 39.9248 105.435 40.1774C105.376 40.4299 105.376 40.6941 105.434 40.9469Z" fill="#B55B52"/>
<path opacity="0.2" d="M105.434 40.9469C105.508 41.3892 105.665 41.811 105.895 42.1869C106.125 42.5629 106.423 42.8854 106.772 43.1351C107.717 43.7944 108.556 42.9631 108.587 41.8069C108.618 40.7654 108.172 39.1696 107.079 38.9785C106.838 38.9446 106.593 38.9741 106.366 39.0646C106.138 39.155 105.934 39.3036 105.772 39.4976C105.61 39.6915 105.494 39.9248 105.435 40.1774C105.376 40.4299 105.376 40.6941 105.434 40.9469Z" fill="black"/>
<path d="M110.045 33.9C108.203 33.9908 105.585 38.4197 107.208 40.3213C108.832 42.2228 113.524 33.728 110.045 33.9Z" fill="#263238"/>
<path d="M116.296 40.9512C114.843 44.2956 114.147 46.3309 111.903 47.4537C108.523 49.1354 105.213 46.0204 105.691 42.2842C106.137 38.9398 108.442 34.0283 112.042 33.9041C112.832 33.871 113.616 34.0588 114.317 34.449C115.019 34.8391 115.614 35.4182 116.043 36.1292C116.472 36.8403 116.722 37.6588 116.766 38.5043C116.81 39.3497 116.649 40.193 116.296 40.9512Z" fill="#B55B52"/>
<path d="M118.729 36.6519C120.513 37.8846 117.984 43.3407 115.691 43.1926C114.679 43.1257 114.866 40.4789 115.879 38.1999C114.032 38.1139 107.949 36.671 108.149 33.5894C108.212 32.5957 109.162 31.9937 110.522 31.2388C110.892 31.0719 111.19 30.7637 111.359 30.3743C111.528 29.9848 111.555 29.542 111.436 29.1318C111.739 29.4501 111.949 29.8558 112.04 30.2995C112.131 30.7432 112.099 31.2057 111.949 31.6306C111.432 33.1403 114.255 32.5431 115.883 32.5001C118.791 32.4141 120.459 34.7409 118.729 36.6519Z" fill="#263238"/>
<path d="M118.328 36.6521C118.328 36.6521 119.76 36.074 120.246 37.4165C119.674 36.9992 119.016 36.7369 118.328 36.6521Z" fill="#263238"/>
<path d="M116.339 45.2997C115.651 45.8574 114.786 46.1044 113.93 45.9877C112.807 45.8205 112.722 44.626 113.435 43.7374C114.073 42.9395 115.433 42.0652 116.366 42.6815C117.298 43.2978 117.186 44.6022 116.339 45.2997Z" fill="#B55B52"/>
<path d="M100.655 83.903C100.655 83.903 99.5488 111.456 99.6648 122.693C99.7896 134.384 102.724 168.483 102.724 168.483H108.554C108.554 168.483 109.624 135.067 110.146 123.572C110.717 111.059 112.75 83.8887 112.75 83.8887L100.655 83.903Z" fill="#407BFF"/>
<path d="M108.982 166.572C109.009 166.572 108.933 168.612 108.933 168.612H102.216L101.984 166.318L108.982 166.572Z" fill="#263238"/>
<path opacity="0.2" d="M108.535 91.1982C108.334 104.867 108.914 113.176 110.319 119.864C110.671 113.343 111.246 104.719 111.75 97.5574L108.535 91.1982Z" fill="black"/>
<path d="M107.18 83.9033C107.18 83.9033 110.44 112.092 112.344 122.603C114.423 134.155 122.388 168.469 122.388 168.469H128.686C128.686 168.469 123.717 135.106 122.647 123.663C121.478 111.241 119.079 83.9033 119.079 83.9033H107.18Z" fill="#407BFF"/>
<path d="M128.724 166.725C128.751 166.725 128.996 168.612 128.996 168.612H122.07L121.508 166.443L128.724 166.725Z" fill="#263238"/>
<path opacity="0.2" d="M126.235 164.494C126.222 164.494 126.209 164.488 126.199 164.479C126.189 164.469 126.183 164.455 126.181 164.441C126.137 164.102 121.65 134.37 120.682 124.093C119.634 112.942 117.449 88.2129 117.426 87.9644C117.425 87.9559 117.426 87.9472 117.428 87.9388C117.43 87.9305 117.433 87.9227 117.438 87.916C117.444 87.9092 117.45 87.9037 117.457 87.8997C117.464 87.8957 117.472 87.8933 117.48 87.8928C117.488 87.8921 117.495 87.8931 117.503 87.8956C117.51 87.8982 117.517 87.9022 117.522 87.9075C117.528 87.9129 117.533 87.9194 117.536 87.9267C117.54 87.934 117.542 87.9419 117.542 87.9501C117.565 88.1986 119.75 112.923 120.798 124.079C121.766 134.351 126.253 164.083 126.297 164.422C126.299 164.43 126.298 164.438 126.297 164.447C126.295 164.455 126.292 164.462 126.287 164.469C126.282 164.476 126.277 164.481 126.27 164.485C126.263 164.49 126.256 164.492 126.248 164.494H126.235Z" fill="black"/>
<path d="M111.14 39.9912C111.038 40.273 110.819 40.4403 110.65 40.3734C110.48 40.3065 110.431 40.0294 110.534 39.7475C110.636 39.4656 110.855 39.2984 111.024 39.3653C111.194 39.4322 111.243 39.7141 111.14 39.9912Z" fill="#263238"/>
<path d="M108.225 38.8305C108.122 39.1076 107.899 39.2796 107.734 39.2127C107.569 39.1458 107.511 38.8639 107.614 38.5868C107.716 38.3097 107.935 38.1091 108.104 38.1998C108.274 38.2906 108.327 38.5486 108.225 38.8305Z" fill="#263238"/>
<path d="M109.102 39.3369C108.483 40.0734 107.773 40.7163 106.992 41.248C107.119 41.4551 107.287 41.6293 107.485 41.7582C107.682 41.8871 107.904 41.9674 108.134 41.9933L109.102 39.3369Z" fill="#A02724"/>
<path d="M108.602 43.0401C108.592 43.0365 108.583 43.0306 108.575 43.023C108.567 43.0153 108.561 43.006 108.557 42.9957C108.553 42.9854 108.551 42.9742 108.551 42.9629C108.551 42.9517 108.553 42.9405 108.557 42.9302C108.566 42.909 108.582 42.892 108.602 42.8824C108.621 42.8727 108.644 42.871 108.664 42.8777C108.986 43.0114 109.332 43.0633 109.676 43.0293C110.02 42.9953 110.351 42.8764 110.645 42.6818C110.66 42.666 110.681 42.6572 110.703 42.6572C110.724 42.6572 110.745 42.666 110.761 42.6818C110.775 42.6986 110.784 42.7208 110.784 42.7439C110.784 42.767 110.775 42.7892 110.761 42.806C110.445 43.0287 110.084 43.1663 109.708 43.2071C109.332 43.2478 108.953 43.1906 108.602 43.0401Z" fill="#263238"/>
<path d="M112.39 39.3278C112.367 39.3171 112.346 39.3014 112.329 39.2816C112.312 39.2619 112.299 39.2385 112.291 39.2131C112.247 38.9982 112.154 38.7984 112.02 38.6316C111.887 38.4649 111.716 38.3363 111.524 38.2576C111.483 38.2433 111.449 38.2122 111.429 38.1711C111.409 38.13 111.405 38.0821 111.417 38.0378C111.432 37.9942 111.461 37.9578 111.498 37.9357C111.536 37.9136 111.581 37.9074 111.622 37.9183C111.864 38.0116 112.08 38.1672 112.252 38.3714C112.424 38.5756 112.546 38.822 112.608 39.0889C112.619 39.1338 112.613 39.1816 112.591 39.2219C112.57 39.2621 112.534 39.2916 112.492 39.3039C112.461 39.3239 112.425 39.3323 112.39 39.3278Z" fill="#263238"/>
<path d="M107.324 37.1873C107.298 37.176 107.275 37.1574 107.258 37.1336C107.241 37.1097 107.231 37.0813 107.228 37.0515C107.224 37.0217 107.229 36.9916 107.24 36.9642C107.252 36.9368 107.27 36.9132 107.293 36.8959C107.488 36.7127 107.721 36.5816 107.973 36.5135C108.225 36.4454 108.489 36.4422 108.742 36.5041C108.763 36.5106 108.782 36.5216 108.799 36.5363C108.815 36.5509 108.829 36.5691 108.839 36.5896C108.849 36.6101 108.855 36.6326 108.857 36.6557C108.859 36.6788 108.856 36.702 108.849 36.7239C108.835 36.7673 108.806 36.8033 108.768 36.8246C108.73 36.8459 108.685 36.8509 108.644 36.8386C108.442 36.7947 108.234 36.8012 108.035 36.8576C107.837 36.9139 107.653 37.0186 107.498 37.1634C107.474 37.1845 107.445 37.198 107.414 37.2022C107.383 37.2064 107.352 37.2013 107.324 37.1873Z" fill="#263238"/>
<path d="M117.855 57.9272L122.646 56.2598C122.646 56.2598 127.043 68.2709 128.675 68.9637C130.905 69.9192 135.397 72.4418 138.198 73.0438C138.519 73.5503 138.947 75.1078 138.813 75.6572C134.799 76.7752 126.628 74.4198 125.018 72.8718C121.339 69.3459 117.855 57.9272 117.855 57.9272Z" fill="#B55B52"/>
<path d="M120.86 51.8646C124.103 52.371 127.55 64.4538 127.55 64.4538L120.619 68.5865C120.619 68.5865 117.743 62.8533 116.356 58.5533C114.906 54.1053 117.381 51.339 120.86 51.8646Z" fill="#263238"/>
<path d="M123.324 173.685C123.092 173.705 122.86 173.639 122.668 173.499C122.604 173.442 122.556 173.367 122.528 173.283C122.5 173.199 122.493 173.109 122.508 173.021C122.509 172.97 122.524 172.919 122.55 172.876C122.576 172.832 122.612 172.796 122.655 172.773C123.034 172.567 124.131 173.294 124.256 173.38C124.269 173.389 124.279 173.402 124.286 173.417C124.292 173.432 124.294 173.449 124.292 173.466C124.288 173.482 124.281 173.498 124.27 173.511C124.259 173.523 124.245 173.532 124.229 173.537C123.933 173.623 123.63 173.672 123.324 173.685ZM122.829 172.921C122.795 172.913 122.76 172.913 122.726 172.921C122.704 172.921 122.677 172.954 122.673 173.021C122.662 173.08 122.666 173.14 122.684 173.196C122.702 173.252 122.733 173.302 122.775 173.341C123.159 173.528 123.594 173.55 123.993 173.403C123.638 173.163 123.242 173 122.829 172.921Z" fill="#407BFF"/>
<path d="M124.206 173.557H124.17C123.818 173.347 123.149 172.539 123.229 172.123C123.244 172.06 123.277 172.003 123.325 171.961C123.372 171.92 123.431 171.896 123.492 171.894C123.555 171.886 123.618 171.892 123.678 171.912C123.738 171.932 123.793 171.965 123.84 172.009C124.228 172.358 124.286 173.442 124.286 173.466C124.287 173.482 124.283 173.498 124.276 173.512C124.269 173.526 124.259 173.538 124.246 173.547C124.234 173.554 124.22 173.558 124.206 173.557ZM123.537 172.061H123.501C123.394 172.061 123.385 172.123 123.381 172.147C123.332 172.391 123.756 172.998 124.103 173.289C124.09 172.872 123.958 172.468 123.724 172.133C123.672 172.085 123.606 172.06 123.537 172.061Z" fill="#407BFF"/>
<path d="M102.645 173.686C102.353 173.714 102.06 173.635 101.816 173.461C101.761 173.409 101.719 173.342 101.694 173.268C101.669 173.194 101.662 173.114 101.673 173.036C101.676 172.988 101.69 172.941 101.714 172.9C101.738 172.859 101.771 172.825 101.811 172.802C102.235 172.549 103.595 173.28 103.756 173.39C103.77 173.398 103.782 173.412 103.789 173.428C103.797 173.444 103.799 173.463 103.796 173.48C103.794 173.499 103.786 173.516 103.774 173.529C103.762 173.542 103.746 173.55 103.729 173.552C103.372 173.633 103.009 173.678 102.645 173.686ZM102.039 172.921C101.986 172.919 101.934 172.93 101.887 172.955C101.871 172.964 101.858 172.977 101.849 172.993C101.84 173.009 101.834 173.027 101.833 173.046C101.827 173.097 101.832 173.15 101.848 173.199C101.864 173.248 101.891 173.292 101.927 173.328C102.132 173.528 102.699 173.566 103.461 173.428C103.018 173.173 102.536 173.001 102.039 172.921Z" fill="#407BFF"/>
<path d="M103.713 173.556H103.677C103.267 173.356 102.464 172.563 102.536 172.123C102.536 172.028 102.62 171.903 102.843 171.879C102.924 171.87 103.005 171.879 103.081 171.906C103.158 171.932 103.229 171.975 103.289 172.032C103.735 172.415 103.789 173.408 103.789 173.466C103.791 173.481 103.788 173.496 103.782 173.51C103.776 173.523 103.766 173.535 103.753 173.542C103.742 173.552 103.728 173.557 103.713 173.556ZM102.906 172.061H102.857C102.71 172.061 102.701 172.137 102.696 172.157C102.652 172.405 103.196 173.031 103.615 173.308C103.583 172.888 103.426 172.49 103.169 172.171C103.095 172.105 103.002 172.066 102.906 172.061Z" fill="#407BFF"/>
<path d="M138.498 75.738L141.771 75.9052L140.032 72.0831C140.032 72.0831 137.164 72.0353 136.691 74.4003L138.498 75.738Z" fill="#B55B52"/>
<path d="M144.424 74.0565L142.689 70.6787L140.031 72.0834L141.771 75.9055L144.424 74.0565Z" fill="#B55B52"/>
</svg>
